# xmcd
#
# Track frame offsets:
#	150
#	17385
#	30948
#	46915
#	60686
#	75943
#	91945
#	103170
#	117525
#	134961
#	148668
#	162812
#
# Disc length: 2401 seconds
# Revision: 0
# Processed by: cddbd v1.5.2PL0 Copyright (c) Steve Scherf et al.
# Submitted via: dBpowerAMP V12.0
#
DISCID=96095f0c
DTITLE=Miss 600 - Buying Time
DYEAR=2011
DGENRE=Blues
TTITLE0=Missing You
TTITLE1=More To Learn
TTITLE2=Buying Time
TTITLE3=Twist
TTITLE4=Money Can't Buy
TTITLE5=Outta' My Head
TTITLE6=Typically Me
TTITLE7=Kick Off Your Shoes
TTITLE8=Be Careful Where You Leave Your Heart
TTITLE9=Is This Love
TTITLE10=Two To Tango
TTITLE11=The Devil Looks Out For His Own
EXTD=
EXTT0=
EXTT1=
EXTT2=
EXTT3=
EXTT4=
EXTT5=
EXTT6=
EXTT7=
EXTT8=
EXTT9=
EXTT10=
EXTT11=
PLAYORDER=
